<svg width="1000.000000" height="600.000000" xmlns="http://www.w3.org/2000/svg"><path d="M990.000000 380.162967,967.639012 382.988994,945.277979 385.814539,922.916905 388.639640,900.555793 391.464336,878.194647 394.288666,855.833470 397.112668,833.472267 399.936381,811.111041 402.759843,788.749796 405.583093,766.388536 408.406170,744.027264 411.229112,721.665984 414.051958,699.304699 416.874747,676.779252 415.539641,654.225019 413.474090,631.670811 411.408166,609.116626 409.341908,586.562461 407.275357,564.008313 405.208551,541.454179 403.141531,518.900056 401.074335,496.345942 399.007004,473.791834 396.939576,451.237729 394.872092,429.297694 398.405652,407.424827 402.551852,385.551924 406.697778,363.678988 410.843466,341.806027 414.988951,319.933044 419.134272,298.060044 423.279463,276.187033 427.424562,254.314017 431.569605,245.390430 420.810481,239.621890 406.420018,233.853353 392.029538,228.084818 377.639042,222.316286 363.248532,216.547756 348.858010,210.779228 334.467478,205.010701 320.076937,199.242176 305.686389,193.473651 291.295837,187.705126 276.905281,174.982630 265.005647,159.508711 254.091140,144.034838 243.176476,128.561007 232.261672,113.087213 221.346742,97.613451 210.431702,82.139717 199.516567,66.666005 188.601353,51.192311 177.686074,35.718631 166.770747,20.244959 155.855386,10.000000 144.168765,16.788292 129.969335,23.576580 115.769882,30.364864 101.570410,37.153145 87.370920,43.941423 73.171415,50.729698 58.971898,57.517972 44.772371,64.306245 30.572836,71.094516 16.373297,74.141352 10.000000" style="stroke: #0065a2; stroke-width: 2; fill: none"/><text x="978.819506" y="381.575980">Track 1</text><circle cx="990.000000" cy="380.162967" r="1" style="stroke: none; fill: #0065a2; r: 5px"/><circle cx="967.639012" cy="382.988994" r="1" style="stroke: none; fill: #0065a2; r: 5px"/><circle cx="945.277979" cy="385.814539" r="1" style="stroke: none; fill: #0065a2; r: 5px"/><circle cx="922.916905" cy="388.639640" r="1" style="stroke: none; fill: #0065a2; r: 5px"/><circle cx="900.555793" cy="391.464336" r="1" style="stroke: none; fill: #0065a2; r: 5px"/><circle cx="878.194647" cy="394.288666" r="1" style="stroke: none; fill: #0065a2; r: 5px"/><circle cx="855.833470" cy="397.112668" r="1" style="stroke: none; fill: #0065a2; r: 5px"/><circle cx="833.472267" cy="399.936381" r="1" style="stroke: none; fill: #0065a2; r: 5px"/><circle cx="811.111041" cy="402.759843" r="1" style="stroke: none; fill: #0065a2; r: 5px"/><circle cx="788.749796" cy="405.583093" r="1" style="stroke: none; fill: #0065a2; r: 5px"/><circle cx="766.388536" cy="408.406170" r="1" style="stroke: none; fill: #0065a2; r: 5px"/><circle cx="744.027264" cy="411.229112" r="1" style="stroke: none; fill: #0065a2; r: 5px"/><circle cx="721.665984" cy="414.051958" r="1" style="stroke: none; fill: #0065a2; r: 5px"/><circle cx="699.304699" cy="416.874747" r="1" style="stroke: none; fill: #0065a2; r: 5px"/><circle cx="676.779252" cy="415.539641" r="1" style="stroke: none; fill: #0065a2; r: 5px"/><circle cx="654.225019" cy="413.474090" r="1" style="stroke: none; fill: #0065a2; r: 5px"/><circle cx="631.670811" cy="411.408166" r="1" style="stroke: none; fill: #0065a2; r: 5px"/><circle cx="609.116626" cy="409.341908" r="1" style="stroke: none; fill: #0065a2; r: 5px"/><circle cx="586.562461" cy="407.275357" r="1" style="stroke: none; fill: #0065a2; r: 5px"/><circle cx="564.008313" cy="405.208551" r="1" style="stroke: none; fill: #0065a2; r: 5px"/><circle cx="541.454179" cy="403.141531" r="1" style="stroke: none; fill: #0065a2; r: 5px"/><circle cx="518.900056" cy="401.074335" r="1" style="stroke: none; fill: #0065a2; r: 5px"/><circle cx="496.345942" cy="399.007004" r="1" style="stroke: none; fill: #0065a2; r: 5px"/><circle cx="473.791834" cy="396.939576" r="1" style="stroke: none; fill: #0065a2; r: 5px"/><circle cx="451.237729" cy="394.872092" r="1" style="stroke: none; fill: #0065a2; r: 5px"/><circle cx="429.297694" cy="398.405652" r="1" style="stroke: none; fill: #0065a2; r: 5px"/><circle cx="407.424827" cy="402.551852" r="1" style="stroke: none; fill: #0065a2; r: 5px"/><circle cx="385.551924" cy="406.697778" r="1" style="stroke: none; fill: #0065a2; r: 5px"/><circle cx="363.678988" cy="410.843466" r="1" style="stroke: none; fill: #0065a2; r: 5px"/><circle cx="341.806027" cy="414.988951" r="1" style="stroke: none; fill: #0065a2; r: 5px"/><circle cx="319.933044" cy="419.134272" r="1" style="stroke: none; fill: #0065a2; r: 5px"/><circle cx="298.060044" cy="423.279463" r="1" style="stroke: none; fill: #0065a2; r: 5px"/><circle cx="276.187033" cy="427.424562" r="1" style="stroke: none; fill: #0065a2; r: 5px"/><circle cx="254.314017" cy="431.569605" r="1" style="stroke: none; fill: #0065a2; r: 5px"/><circle cx="245.390430" cy="420.810481" r="1" style="stroke: none; fill: #0065a2; r: 5px"/><circle cx="239.621890" cy="406.420018" r="1" style="stroke: none; fill: #0065a2; r: 5px"/><circle cx="233.853353" cy="392.029538" r="1" style="stroke: none; fill: #0065a2; r: 5px"/><circle cx="228.084818" cy="377.639042" r="1" style="stroke: none; fill: #0065a2; r: 5px"/><circle cx="222.316286" cy="363.248532" r="1" style="stroke: none; fill: #0065a2; r: 5px"/><circle cx="216.547756" cy="348.858010" r="1" style="stroke: none; fill: #0065a2; r: 5px"/><circle cx="210.779228" cy="334.467478" r="1" style="stroke: none; fill: #0065a2; r: 5px"/><circle cx="205.010701" cy="320.076937" r="1" style="stroke: none; fill: #0065a2; r: 5px"/><circle cx="199.242176" cy="305.686389" r="1" style="stroke: none; fill: #0065a2; r: 5px"/><circle cx="193.473651" cy="291.295837" r="1" style="stroke: none; fill: #0065a2; r: 5px"/><circle cx="187.705126" cy="276.905281" r="1" style="stroke: none; fill: #0065a2; r: 5px"/><circle cx="174.982630" cy="265.005647" r="1" style="stroke: none; fill: #0065a2; r: 5px"/><circle cx="159.508711" cy="254.091140" r="1" style="stroke: none; fill: #0065a2; r: 5px"/><circle cx="144.034838" cy="243.176476" r="1" style="stroke: none; fill: #0065a2; r: 5px"/><circle cx="128.561007" cy="232.261672" r="1" style="stroke: none; fill: #0065a2; r: 5px"/><circle cx="113.087213" cy="221.346742" r="1" style="stroke: none; fill: #0065a2; r: 5px"/><circle cx="97.613451" cy="210.431702" r="1" style="stroke: none; fill: #0065a2; r: 5px"/><circle cx="82.139717" cy="199.516567" r="1" style="stroke: none; fill: #0065a2; r: 5px"/><circle cx="66.666005" cy="188.601353" r="1" style="stroke: none; fill: #0065a2; r: 5px"/><circle cx="51.192311" cy="177.686074" r="1" style="stroke: none; fill: #0065a2; r: 5px"/><circle cx="35.718631" cy="166.770747" r="1" style="stroke: none; fill: #0065a2; r: 5px"/><circle cx="20.244959" cy="155.855386" r="1" style="stroke: none; fill: #0065a2; r: 5px"/><circle cx="10.000000" cy="144.168765" r="1" style="stroke: none; fill: #0065a2; r: 5px"/><circle cx="16.788292" cy="129.969335" r="1" style="stroke: none; fill: #0065a2; r: 5px"/><circle cx="23.576580" cy="115.769882" r="1" style="stroke: none; fill: #0065a2; r: 5px"/><circle cx="30.364864" cy="101.570410" r="1" style="stroke: none; fill: #0065a2; r: 5px"/><circle cx="37.153145" cy="87.370920" r="1" style="stroke: none; fill: #0065a2; r: 5px"/><circle cx="43.941423" cy="73.171415" r="1" style="stroke: none; fill: #0065a2; r: 5px"/><circle cx="50.729698" cy="58.971898" r="1" style="stroke: none; fill: #0065a2; r: 5px"/><circle cx="57.517972" cy="44.772371" r="1" style="stroke: none; fill: #0065a2; r: 5px"/><circle cx="64.306245" cy="30.572836" r="1" style="stroke: none; fill: #0065a2; r: 5px"/><circle cx="71.094516" cy="16.373297" r="1" style="stroke: none; fill: #0065a2; r: 5px"/><circle cx="74.141352" cy="10.000000" r="1" style="stroke: none; fill: #0065a2; r: 5px"/></svg>