<svg width="1000.000000" height="537.155760" xmlns="http://www.w3.org/2000/svg"><path d="M950.000000 389.945582,929.464399 392.540913,908.928757 395.135801,888.393076 397.730282,867.857361 400.324391,847.321614 402.918163,826.785840 405.511634,806.250041 408.104839,785.714222 410.697815,765.178384 413.290596,744.642533 415.883217,724.106671 418.475715,703.570801 421.068125,683.034928 423.660482,662.348293 422.434365,641.635221 420.537430,620.922173 418.640152,600.209146 416.742569,579.496137 414.844715,558.783144 412.946629,538.070164 411.048345,517.357194 409.149900,496.644233 407.251330,475.931276 405.352672,455.218323 403.453962,435.069311 406.699068,414.981984 410.506803,394.894624 414.314286,374.807234 418.121550,354.719820 421.928629,334.632387 425.735556,314.544938 429.542364,294.457480 433.349088,274.370015 437.155760,266.174884 427.274932,260.877246 414.059201,255.579610 400.843453,250.281976 387.627692,244.984345 374.411917,239.686715 361.196132,234.389087 347.980337,229.091461 334.764534,223.793835 321.548725,218.496210 308.332911,213.198585 295.117095,201.514661 284.188860,187.303918 274.165333,173.093219 264.141662,158.882558 254.117862,144.671930 244.093947,130.461333 234.069930,116.250760 224.045827,102.040209 214.021650,87.829674 203.997415,73.619151 193.973135,59.408636 183.948824,50.000000 173.216213,56.234146 160.175920,62.468288 147.135606,68.702426 134.095274,74.936562 121.054926,81.170695 108.014565,87.404825 94.974192,93.638954 81.933810,99.873082 68.893421,106.107209 55.853028,108.905323 50.000000" style="stroke: #0065a2; stroke-width: 2; fill: none"/><circle cx="950.000000" cy="389.945582" r="1" style="stroke: none; fill: #0065a2; r: 5px"/><circle cx="929.464399" cy="392.540913" r="1" style="stroke: none; fill: #0065a2; r: 5px"/><circle cx="908.928757" cy="395.135801" r="1" style="stroke: none; fill: #0065a2; r: 5px"/><circle cx="888.393076" cy="397.730282" r="1" style="stroke: none; fill: #0065a2; r: 5px"/><circle cx="867.857361" cy="400.324391" r="1" style="stroke: none; fill: #0065a2; r: 5px"/><circle cx="847.321614" cy="402.918163" r="1" style="stroke: none; fill: #0065a2; r: 5px"/><circle cx="826.785840" cy="405.511634" r="1" style="stroke: none; fill: #0065a2; r: 5px"/><circle cx="806.250041" cy="408.104839" r="1" style="stroke: none; fill: #0065a2; r: 5px"/><circle cx="785.714222" cy="410.697815" r="1" style="stroke: none; fill: #0065a2; r: 5px"/><circle cx="765.178384" cy="413.290596" r="1" style="stroke: none; fill: #0065a2; r: 5px"/><circle cx="744.642533" cy="415.883217" r="1" style="stroke: none; fill: #0065a2; r: 5px"/><circle cx="724.106671" cy="418.475715" r="1" style="stroke: none; fill: #0065a2; r: 5px"/><circle cx="703.570801" cy="421.068125" r="1" style="stroke: none; fill: #0065a2; r: 5px"/><circle cx="683.034928" cy="423.660482" r="1" style="stroke: none; fill: #0065a2; r: 5px"/><circle cx="662.348293" cy="422.434365" r="1" style="stroke: none; fill: #0065a2; r: 5px"/><circle cx="641.635221" cy="420.537430" r="1" style="stroke: none; fill: #0065a2; r: 5px"/><circle cx="620.922173" cy="418.640152" r="1" style="stroke: none; fill: #0065a2; r: 5px"/><circle cx="600.209146" cy="416.742569" r="1" style="stroke: none; fill: #0065a2; r: 5px"/><circle cx="579.496137" cy="414.844715" r="1" style="stroke: none; fill: #0065a2; r: 5px"/><circle cx="558.783144" cy="412.946629" r="1" style="stroke: none; fill: #0065a2; r: 5px"/><circle cx="538.070164" cy="411.048345" r="1" style="stroke: none; fill: #0065a2; r: 5px"/><circle cx="517.357194" cy="409.149900" r="1" style="stroke: none; fill: #0065a2; r: 5px"/><circle cx="496.644233" cy="407.251330" r="1" style="stroke: none; fill: #0065a2; r: 5px"/><circle cx="475.931276" cy="405.352672" r="1" style="stroke: none; fill: #0065a2; r: 5px"/><circle cx="455.218323" cy="403.453962" r="1" style="stroke: none; fill: #0065a2; r: 5px"/><circle cx="435.069311" cy="406.699068" r="1" style="stroke: none; fill: #0065a2; r: 5px"/><circle cx="414.981984" cy="410.506803" r="1" style="stroke: none; fill: #0065a2; r: 5px"/><circle cx="394.894624" cy="414.314286" r="1" style="stroke: none; fill: #0065a2; r: 5px"/><circle cx="374.807234" cy="418.121550" r="1" style="stroke: none; fill: #0065a2; r: 5px"/><circle cx="354.719820" cy="421.928629" r="1" style="stroke: none; fill: #0065a2; r: 5px"/><circle cx="334.632387" cy="425.735556" r="1" style="stroke: none; fill: #0065a2; r: 5px"/><circle cx="314.544938" cy="429.542364" r="1" style="stroke: none; fill: #0065a2; r: 5px"/><circle cx="294.457480" cy="433.349088" r="1" style="stroke: none; fill: #0065a2; r: 5px"/><circle cx="274.370015" cy="437.155760" r="1" style="stroke: none; fill: #0065a2; r: 5px"/><circle cx="266.174884" cy="427.274932" r="1" style="stroke: none; fill: #0065a2; r: 5px"/><circle cx="260.877246" cy="414.059201" r="1" style="stroke: none; fill: #0065a2; r: 5px"/><circle cx="255.579610" cy="400.843453" r="1" style="stroke: none; fill: #0065a2; r: 5px"/><circle cx="250.281976" cy="387.627692" r="1" style="stroke: none; fill: #0065a2; r: 5px"/><circle cx="244.984345" cy="374.411917" r="1" style="stroke: none; fill: #0065a2; r: 5px"/><circle cx="239.686715" cy="361.196132" r="1" style="stroke: none; fill: #0065a2; r: 5px"/><circle cx="234.389087" cy="347.980337" r="1" style="stroke: none; fill: #0065a2; r: 5px"/><circle cx="229.091461" cy="334.764534" r="1" style="stroke: none; fill: #0065a2; r: 5px"/><circle cx="223.793835" cy="321.548725" r="1" style="stroke: none; fill: #0065a2; r: 5px"/><circle cx="218.496210" cy="308.332911" r="1" style="stroke: none; fill: #0065a2; r: 5px"/><circle cx="213.198585" cy="295.117095" r="1" style="stroke: none; fill: #0065a2; r: 5px"/><circle cx="201.514661" cy="284.188860" r="1" style="stroke: none; fill: #0065a2; r: 5px"/><circle cx="187.303918" cy="274.165333" r="1" style="stroke: none; fill: #0065a2; r: 5px"/><circle cx="173.093219" cy="264.141662" r="1" style="stroke: none; fill: #0065a2; r: 5px"/><circle cx="158.882558" cy="254.117862" r="1" style="stroke: none; fill: #0065a2; r: 5px"/><circle cx="144.671930" cy="244.093947" r="1" style="stroke: none; fill: #0065a2; r: 5px"/><circle cx="130.461333" cy="234.069930" r="1" style="stroke: none; fill: #0065a2; r: 5px"/><circle cx="116.250760" cy="224.045827" r="1" style="stroke: none; fill: #0065a2; r: 5px"/><circle cx="102.040209" cy="214.021650" r="1" style="stroke: none; fill: #0065a2; r: 5px"/><circle cx="87.829674" cy="203.997415" r="1" style="stroke: none; fill: #0065a2; r: 5px"/><circle cx="73.619151" cy="193.973135" r="1" style="stroke: none; fill: #0065a2; r: 5px"/><circle cx="59.408636" cy="183.948824" r="1" style="stroke: none; fill: #0065a2; r: 5px"/><circle cx="50.000000" cy="173.216213" r="1" style="stroke: none; fill: #0065a2; r: 5px"/><circle cx="56.234146" cy="160.175920" r="1" style="stroke: none; fill: #0065a2; r: 5px"/><circle cx="62.468288" cy="147.135606" r="1" style="stroke: none; fill: #0065a2; r: 5px"/><circle cx="68.702426" cy="134.095274" r="1" style="stroke: none; fill: #0065a2; r: 5px"/><circle cx="74.936562" cy="121.054926" r="1" style="stroke: none; fill: #0065a2; r: 5px"/><circle cx="81.170695" cy="108.014565" r="1" style="stroke: none; fill: #0065a2; r: 5px"/><circle cx="87.404825" cy="94.974192" r="1" style="stroke: none; fill: #0065a2; r: 5px"/><circle cx="93.638954" cy="81.933810" r="1" style="stroke: none; fill: #0065a2; r: 5px"/><circle cx="99.873082" cy="68.893421" r="1" style="stroke: none; fill: #0065a2; r: 5px"/><circle cx="106.107209" cy="55.853028" r="1" style="stroke: none; fill: #0065a2; r: 5px"/><circle cx="108.905323" cy="50.000000" r="1" style="stroke: none; fill: #0065a2; r: 5px"/></svg>