<svg width="1000.000000" height="600.000000" xmlns="http://www.w3.org/2000/svg"><path d="M990.000000 382.744940,922.449117 391.277620,854.898121 399.808998,787.347044 408.339424,719.795920 416.869247,651.884773 416.287360,583.750102 410.044543,515.615483 403.800877,447.480889 397.556721,381.336986 409.463408,315.260712 421.986792,249.184388 434.509712,228.579565 394.695421,211.153233 351.222686,193.726905 307.749913,169.298818 266.785165,122.553258 233.811793,75.807809 200.838004,29.062428 167.863937,10.000000 130.805870,30.506929 87.910209,51.013848 45.014496,67.753023 10.000000" style="stroke: #0065a2; stroke-width: 2; fill: none"/><text x="956.224559" y="387.011280">Track 1</text><circle cx="990.000000" cy="382.744940" r="1" style="stroke: none; fill: #0065a2; r: 5px"/><circle cx="922.449117" cy="391.277620" r="1" style="stroke: none; fill: #0065a2; r: 5px"/><circle cx="854.898121" cy="399.808998" r="1" style="stroke: none; fill: #0065a2; r: 5px"/><circle cx="787.347044" cy="408.339424" r="1" style="stroke: none; fill: #0065a2; r: 5px"/><circle cx="719.795920" cy="416.869247" r="1" style="stroke: none; fill: #0065a2; r: 5px"/><circle cx="651.884773" cy="416.287360" r="1" style="stroke: none; fill: #0065a2; r: 5px"/><circle cx="583.750102" cy="410.044543" r="1" style="stroke: none; fill: #0065a2; r: 5px"/><circle cx="515.615483" cy="403.800877" r="1" style="stroke: none; fill: #0065a2; r: 5px"/><circle cx="447.480889" cy="397.556721" r="1" style="stroke: none; fill: #0065a2; r: 5px"/><circle cx="381.336986" cy="409.463408" r="1" style="stroke: none; fill: #0065a2; r: 5px"/><circle cx="315.260712" cy="421.986792" r="1" style="stroke: none; fill: #0065a2; r: 5px"/><circle cx="249.184388" cy="434.509712" r="1" style="stroke: none; fill: #0065a2; r: 5px"/><circle cx="228.579565" cy="394.695421" r="1" style="stroke: none; fill: #0065a2; r: 5px"/><circle cx="211.153233" cy="351.222686" r="1" style="stroke: none; fill: #0065a2; r: 5px"/><circle cx="193.726905" cy="307.749913" r="1" style="stroke: none; fill: #0065a2; r: 5px"/><circle cx="169.298818" cy="266.785165" r="1" style="stroke: none; fill: #0065a2; r: 5px"/><circle cx="122.553258" cy="233.811793" r="1" style="stroke: none; fill: #0065a2; r: 5px"/><circle cx="75.807809" cy="200.838004" r="1" style="stroke: none; fill: #0065a2; r: 5px"/><circle cx="29.062428" cy="167.863937" r="1" style="stroke: none; fill: #0065a2; r: 5px"/><circle cx="10.000000" cy="130.805870" r="1" style="stroke: none; fill: #0065a2; r: 5px"/><circle cx="30.506929" cy="87.910209" r="1" style="stroke: none; fill: #0065a2; r: 5px"/><circle cx="51.013848" cy="45.014496" r="1" style="stroke: none; fill: #0065a2; r: 5px"/><circle cx="67.753023" cy="10.000000" r="1" style="stroke: none; fill: #0065a2; r: 5px"/></svg>