<svg width="1000.000000" height="539.855858" xmlns="http://www.w3.org/2000/svg"><path d="M950.000000 392.316782,887.963475 400.152917,825.926846 407.987856,763.890142 415.821920,701.853396 423.655431,639.486016 423.121045,576.913359 417.387845,514.340749 411.653867,451.768164 405.919438,391.023763 416.854150,330.341470 428.355217,269.659132 439.855858,250.736336 403.291714,234.732561 363.367772,218.728790 323.443798,196.294833 285.823110,153.365236 255.541442,110.435743 225.259391,67.506312 194.977085,50.000000 160.944166,68.832894 121.550192,87.665779 82.156169,103.038491 50.000000" style="stroke: #0065a2; stroke-width: 2; fill: none"/><circle cx="950.000000" cy="392.316782" r="1" style="stroke: none; fill: #0065a2; r: 5px"/><circle cx="887.963475" cy="400.152917" r="1" style="stroke: none; fill: #0065a2; r: 5px"/><circle cx="825.926846" cy="407.987856" r="1" style="stroke: none; fill: #0065a2; r: 5px"/><circle cx="763.890142" cy="415.821920" r="1" style="stroke: none; fill: #0065a2; r: 5px"/><circle cx="701.853396" cy="423.655431" r="1" style="stroke: none; fill: #0065a2; r: 5px"/><circle cx="639.486016" cy="423.121045" r="1" style="stroke: none; fill: #0065a2; r: 5px"/><circle cx="576.913359" cy="417.387845" r="1" style="stroke: none; fill: #0065a2; r: 5px"/><circle cx="514.340749" cy="411.653867" r="1" style="stroke: none; fill: #0065a2; r: 5px"/><circle cx="451.768164" cy="405.919438" r="1" style="stroke: none; fill: #0065a2; r: 5px"/><circle cx="391.023763" cy="416.854150" r="1" style="stroke: none; fill: #0065a2; r: 5px"/><circle cx="330.341470" cy="428.355217" r="1" style="stroke: none; fill: #0065a2; r: 5px"/><circle cx="269.659132" cy="439.855858" r="1" style="stroke: none; fill: #0065a2; r: 5px"/><circle cx="250.736336" cy="403.291714" r="1" style="stroke: none; fill: #0065a2; r: 5px"/><circle cx="234.732561" cy="363.367772" r="1" style="stroke: none; fill: #0065a2; r: 5px"/><circle cx="218.728790" cy="323.443798" r="1" style="stroke: none; fill: #0065a2; r: 5px"/><circle cx="196.294833" cy="285.823110" r="1" style="stroke: none; fill: #0065a2; r: 5px"/><circle cx="153.365236" cy="255.541442" r="1" style="stroke: none; fill: #0065a2; r: 5px"/><circle cx="110.435743" cy="225.259391" r="1" style="stroke: none; fill: #0065a2; r: 5px"/><circle cx="67.506312" cy="194.977085" r="1" style="stroke: none; fill: #0065a2; r: 5px"/><circle cx="50.000000" cy="160.944166" r="1" style="stroke: none; fill: #0065a2; r: 5px"/><circle cx="68.832894" cy="121.550192" r="1" style="stroke: none; fill: #0065a2; r: 5px"/><circle cx="87.665779" cy="82.156169" r="1" style="stroke: none; fill: #0065a2; r: 5px"/><circle cx="103.038491" cy="50.000000" r="1" style="stroke: none; fill: #0065a2; r: 5px"/></svg>