<svg width="1000.000000" height="702.071714" xmlns="http://www.w3.org/2000/svg"><path d="M950.000000 360.160612,825.926846 375.831686,701.853396 391.499261,576.913359 385.231676,451.768164 373.763268,330.341470 396.199048" style="stroke: black; stroke-width: 2; fill: none"/><text x="887.963423" y="367.996149">[1]</text><path d="M330.341470 396.199048,234.732561 331.211603,196.294833 253.666941" style="stroke: black; stroke-width: 2; fill: none"/><text x="282.537015" y="363.705326">[1 2]</text><path d="M196.294833 253.666941,110.435743 193.103222,50.000000 128.787997,87.665779 50.000000" style="stroke: black; stroke-width: 2; fill: none"/><text x="153.365288" y="223.385081">[1]</text><path d="M810.345823 67.205170,765.212504 144.301305,692.216544 196.356752,566.007391 200.577704,439.798075 204.791890,313.588664 209.002002,196.294833 253.666941" style="stroke: black; stroke-width: 2; fill: none"/><text x="787.779164" y="105.753237">[2]</text><path d="M330.341470 396.199048,397.347695 455.886729,456.052655 528.979533,514.757766 602.071714" style="stroke: black; stroke-width: 2; fill: none"/><text x="363.844582" y="426.042889">[2]</text><circle cx="439.798075" cy="204.791890" r="1" style="stroke: none; fill: black; r: 5px"/><circle cx="397.347695" cy="455.886729" r="1" style="stroke: none; fill: black; r: 5px"/><circle cx="701.853396" cy="391.499261" r="1" style="stroke: none; fill: black; r: 5px"/><circle cx="196.294833" cy="253.666941" r="1" style="stroke: none; fill: #1BA1E2; r: 8px"/><circle cx="765.212504" cy="144.301305" r="1" style="stroke: none; fill: black; r: 5px"/><circle cx="566.007391" cy="200.577704" r="1" style="stroke: none; fill: black; r: 5px"/><circle cx="810.345823" cy="67.205170" r="1" style="stroke: none; fill: #4dd091; r: 8px"/><circle cx="692.216544" cy="196.356752" r="1" style="stroke: none; fill: black; r: 5px"/><circle cx="313.588664" cy="209.002002" r="1" style="stroke: none; fill: black; r: 5px"/><circle cx="456.052655" cy="528.979533" r="1" style="stroke: none; fill: black; r: 5px"/><circle cx="825.926846" cy="375.831686" r="1" style="stroke: none; fill: black; r: 5px"/><circle cx="576.913359" cy="385.231676" r="1" style="stroke: none; fill: black; r: 5px"/><circle cx="451.768164" cy="373.763268" r="1" style="stroke: none; fill: black; r: 5px"/><circle cx="50.000000" cy="128.787997" r="1" style="stroke: none; fill: black; r: 5px"/><circle cx="87.665779" cy="50.000000" r="1" style="stroke: none; fill: #ff5c77; r: 8px"/><circle cx="514.757766" cy="602.071714" r="1" style="stroke: none; fill: #ff5c77; r: 8px"/><circle cx="950.000000" cy="360.160612" r="1" style="stroke: none; fill: #4dd091; r: 8px"/><circle cx="330.341470" cy="396.199048" r="1" style="stroke: none; fill: #1BA1E2; r: 8px"/><circle cx="234.732561" cy="331.211603" r="1" style="stroke: none; fill: black; r: 5px"/><circle cx="110.435743" cy="193.103222" r="1" style="stroke: none; fill: black; r: 5px"/></svg>