<svg width="1000.000000" height="600.000000" xmlns="http://www.w3.org/2000/svg"><path d="M837.932118 63.749014,813.359543 105.723622,788.786949 147.698138,764.214345 189.672595,709.302459 204.380737,640.588614 206.679914,571.874715 208.976884,503.160771 211.272012,434.446792 213.565664,365.732788 215.858208,297.018767 218.150009,235.873952 230.318047,169.298818 266.785165" style="stroke: black; stroke-width: 2; fill: none"/><text x="825.645831" y="84.736318">2</text><path d="M990.000000 382.744940,922.449117 391.277620,854.898121 399.808998,787.347044 408.339424,719.795920 416.869247,651.884773 416.287360,583.750102 410.044543,515.615483 403.800877,447.480889 397.556721,381.336986 409.463408,315.260712 421.986792" style="stroke: black; stroke-width: 2; fill: none"/><text x="956.224559" y="387.011280">1</text><path d="M315.260712 421.986792,249.184388 434.509712,228.579565 394.695421,211.153233 351.222686,193.726905 307.749913,169.298818 266.785165" style="stroke: black; stroke-width: 2; fill: none"/><text x="282.222550" y="428.248252">1,2</text><path d="M169.298818 266.785165,122.553258 233.811793,75.807809 200.838004,29.062428 167.863937,10.000000 130.805870,30.506929 87.910209,51.013848 45.014496,67.753023 10.000000" style="stroke: black; stroke-width: 2; fill: none"/><text x="145.926038" y="250.298479">1</text><path d="M315.260712 421.986792,356.261558 447.184673,388.223045 486.980045,420.184606 526.775130,452.146225 566.569987,484.107884 606.364674,516.069567 646.159250,530.218287 663.775392" style="stroke: black; stroke-width: 2; fill: none"/><text x="335.761135" y="434.585733">2</text><circle cx="51.013848" cy="45.014496" r="1" style="stroke: none; fill: black; r: 5px"/><circle cx="228.579565" cy="394.695421" r="1" style="stroke: none; fill: black; r: 5px"/><circle cx="10.000000" cy="130.805870" r="1" style="stroke: none; fill: black; r: 5px"/><circle cx="381.336986" cy="409.463408" r="1" style="stroke: none; fill: black; r: 5px"/><circle cx="169.298818" cy="266.785165" r="1" style="stroke: none; fill: #1BA1E2; r: 8px"/><circle cx="122.553258" cy="233.811793" r="1" style="stroke: none; fill: black; r: 5px"/><circle cx="388.223045" cy="486.980045" r="1" style="stroke: none; fill: black; r: 5px"/><circle cx="719.795920" cy="416.869247" r="1" style="stroke: none; fill: black; r: 5px"/><circle cx="651.884773" cy="416.287360" r="1" style="stroke: none; fill: black; r: 5px"/><circle cx="249.184388" cy="434.509712" r="1" style="stroke: none; fill: black; r: 5px"/><circle cx="709.302459" cy="204.380737" r="1" style="stroke: none; fill: black; r: 5px"/><circle cx="365.732788" cy="215.858208" r="1" style="stroke: none; fill: black; r: 5px"/><circle cx="297.018767" cy="218.150009" r="1" style="stroke: none; fill: black; r: 5px"/><circle cx="515.615483" cy="403.800877" r="1" style="stroke: none; fill: black; r: 5px"/><circle cx="315.260712" cy="421.986792" r="1" style="stroke: none; fill: #1BA1E2; r: 8px"/><circle cx="571.874715" cy="208.976884" r="1" style="stroke: none; fill: black; r: 5px"/><circle cx="452.146225" cy="566.569987" r="1" style="stroke: none; fill: black; r: 5px"/><circle cx="530.218287" cy="663.775392" r="1" style="stroke: none; fill: #ff5c77; r: 8px"/><circle cx="447.480889" cy="397.556721" r="1" style="stroke: none; fill: black; r: 5px"/><circle cx="193.726905" cy="307.749913" r="1" style="stroke: none; fill: black; r: 5px"/><circle cx="640.588614" cy="206.679914" r="1" style="stroke: none; fill: black; r: 5px"/><circle cx="420.184606" cy="526.775130" r="1" style="stroke: none; fill: black; r: 5px"/><circle cx="484.107884" cy="606.364674" r="1" style="stroke: none; fill: black; r: 5px"/><circle cx="29.062428" cy="167.863937" r="1" style="stroke: none; fill: black; r: 5px"/><circle cx="813.359543" cy="105.723622" r="1" style="stroke: none; fill: black; r: 5px"/><circle cx="75.807809" cy="200.838004" r="1" style="stroke: none; fill: black; r: 5px"/><circle cx="30.506929" cy="87.910209" r="1" style="stroke: none; fill: black; r: 5px"/><circle cx="67.753023" cy="10.000000" r="1" style="stroke: none; fill: #ff5c77; r: 8px"/><circle cx="788.786949" cy="147.698138" r="1" style="stroke: none; fill: black; r: 5px"/><circle cx="434.446792" cy="213.565664" r="1" style="stroke: none; fill: black; r: 5px"/><circle cx="235.873952" cy="230.318047" r="1" style="stroke: none; fill: black; r: 5px"/><circle cx="854.898121" cy="399.808998" r="1" style="stroke: none; fill: black; r: 5px"/><circle cx="787.347044" cy="408.339424" r="1" style="stroke: none; fill: black; r: 5px"/><circle cx="356.261558" cy="447.184673" r="1" style="stroke: none; fill: black; r: 5px"/><circle cx="211.153233" cy="351.222686" r="1" style="stroke: none; fill: black; r: 5px"/><circle cx="837.932118" cy="63.749014" r="1" style="stroke: none; fill: #4dd091; r: 8px"/><circle cx="764.214345" cy="189.672595" r="1" style="stroke: none; fill: black; r: 5px"/><circle cx="503.160771" cy="211.272012" r="1" style="stroke: none; fill: black; r: 5px"/><circle cx="516.069567" cy="646.159250" r="1" style="stroke: none; fill: black; r: 5px"/><circle cx="990.000000" cy="382.744940" r="1" style="stroke: none; fill: #4dd091; r: 8px"/><circle cx="583.750102" cy="410.044543" r="1" style="stroke: none; fill: black; r: 5px"/><circle cx="922.449117" cy="391.277620" r="1" style="stroke: none; fill: black; r: 5px"/></svg>