<svg width="1000.000000" height="750.000000" xmlns="http://www.w3.org/2000/svg"><path d="M218.728790 323.443798,196.294833 285.823110,153.365236 255.541442,110.435743 225.259391,67.506312 194.977085,50.000000 160.944166,68.832894 121.550192,87.665779 82.156169,103.038491 50.000000" style="stroke: black; stroke-width: 2; fill: none"/><text x="207.511812" y="304.633454">[1]</text><path d="M810.345823 99.361339,787.779172 137.909449,765.212504 176.457474,742.645827 215.005445,692.216544 228.512921,629.111993 230.624411,566.007391 232.733873,502.902749 234.841644,439.798075 236.948059,376.693377 239.053456,313.588664 241.158172,257.435262 252.332900,217.037793 284.066311,218.728790 323.443798" style="stroke: black; stroke-width: 2; fill: none"/><text x="799.062498" y="118.635394">[2]</text><path d="M330.341470 428.355217,269.659132 439.855858,250.736336 403.291714,234.732561 363.367772,218.728790 323.443798" style="stroke: black; stroke-width: 2; fill: none"/><text x="300.000301" y="434.105538">[1 2]</text><path d="M330.341470 428.355217,367.995308 451.496129,397.347695 488.042899,426.700149 524.589405,456.052655 561.135702,485.405200 597.681844,514.757766 634.227883,527.751488 650.405972" style="stroke: black; stroke-width: 2; fill: none"/><text x="349.168389" y="439.925673">[2]</text><path d="M950.000000 392.316782,887.963475 400.152917,825.926846 407.987856,763.890142 415.821920,701.853396 423.655431,639.486016 423.121045,576.913359 417.387845,514.340749 411.653867,451.768164 405.919438,391.023763 416.854150,330.341470 428.355217" style="stroke: black; stroke-width: 2; fill: none"/><text x="918.981738" y="396.234849">[1]</text><circle cx="391.023763" cy="416.854150" r="1" style="stroke: none; fill: black; r: 5px"/><circle cx="330.341470" cy="428.355217" r="1" style="stroke: none; fill: #1BA1E2; r: 8px"/><circle cx="50.000000" cy="160.944166" r="1" style="stroke: none; fill: black; r: 5px"/><circle cx="439.798075" cy="236.948059" r="1" style="stroke: none; fill: black; r: 5px"/><circle cx="825.926846" cy="407.987856" r="1" style="stroke: none; fill: black; r: 5px"/><circle cx="701.853396" cy="423.655431" r="1" style="stroke: none; fill: black; r: 5px"/><circle cx="269.659132" cy="439.855858" r="1" style="stroke: none; fill: black; r: 5px"/><circle cx="250.736336" cy="403.291714" r="1" style="stroke: none; fill: black; r: 5px"/><circle cx="87.665779" cy="82.156169" r="1" style="stroke: none; fill: black; r: 5px"/><circle cx="742.645827" cy="215.005445" r="1" style="stroke: none; fill: black; r: 5px"/><circle cx="566.007391" cy="232.733873" r="1" style="stroke: none; fill: black; r: 5px"/><circle cx="257.435262" cy="252.332900" r="1" style="stroke: none; fill: black; r: 5px"/><circle cx="217.037793" cy="284.066311" r="1" style="stroke: none; fill: black; r: 5px"/><circle cx="485.405200" cy="597.681844" r="1" style="stroke: none; fill: black; r: 5px"/><circle cx="639.486016" cy="423.121045" r="1" style="stroke: none; fill: black; r: 5px"/><circle cx="576.913359" cy="417.387845" r="1" style="stroke: none; fill: black; r: 5px"/><circle cx="218.728790" cy="323.443798" r="1" style="stroke: none; fill: #1BA1E2; r: 8px"/><circle cx="397.347695" cy="488.042899" r="1" style="stroke: none; fill: black; r: 5px"/><circle cx="196.294833" cy="285.823110" r="1" style="stroke: none; fill: black; r: 5px"/><circle cx="110.435743" cy="225.259391" r="1" style="stroke: none; fill: black; r: 5px"/><circle cx="67.506312" cy="194.977085" r="1" style="stroke: none; fill: black; r: 5px"/><circle cx="103.038491" cy="50.000000" r="1" style="stroke: none; fill: #ff5c77; r: 8px"/><circle cx="810.345823" cy="99.361339" r="1" style="stroke: none; fill: #4dd091; r: 8px"/><circle cx="787.779172" cy="137.909449" r="1" style="stroke: none; fill: black; r: 5px"/><circle cx="692.216544" cy="228.512921" r="1" style="stroke: none; fill: black; r: 5px"/><circle cx="950.000000" cy="392.316782" r="1" style="stroke: none; fill: #4dd091; r: 8px"/><circle cx="887.963475" cy="400.152917" r="1" style="stroke: none; fill: black; r: 5px"/><circle cx="451.768164" cy="405.919438" r="1" style="stroke: none; fill: black; r: 5px"/><circle cx="765.212504" cy="176.457474" r="1" style="stroke: none; fill: black; r: 5px"/><circle cx="527.751488" cy="650.405972" r="1" style="stroke: none; fill: #ff5c77; r: 8px"/><circle cx="514.340749" cy="411.653867" r="1" style="stroke: none; fill: black; r: 5px"/><circle cx="629.111993" cy="230.624411" r="1" style="stroke: none; fill: black; r: 5px"/><circle cx="376.693377" cy="239.053456" r="1" style="stroke: none; fill: black; r: 5px"/><circle cx="313.588664" cy="241.158172" r="1" style="stroke: none; fill: black; r: 5px"/><circle cx="456.052655" cy="561.135702" r="1" style="stroke: none; fill: black; r: 5px"/><circle cx="763.890142" cy="415.821920" r="1" style="stroke: none; fill: black; r: 5px"/><circle cx="234.732561" cy="363.367772" r="1" style="stroke: none; fill: black; r: 5px"/><circle cx="153.365236" cy="255.541442" r="1" style="stroke: none; fill: black; r: 5px"/><circle cx="502.902749" cy="234.841644" r="1" style="stroke: none; fill: black; r: 5px"/><circle cx="367.995308" cy="451.496129" r="1" style="stroke: none; fill: black; r: 5px"/><circle cx="426.700149" cy="524.589405" r="1" style="stroke: none; fill: black; r: 5px"/><circle cx="514.757766" cy="634.227883" r="1" style="stroke: none; fill: black; r: 5px"/><circle cx="68.832894" cy="121.550192" r="1" style="stroke: none; fill: black; r: 5px"/></svg>