<svg width="1000.000000" height="600.000000" xmlns="http://www.w3.org/2000/svg"><path d="M990.000000 347.730445,854.898121 364.794503,719.795920 381.854751,583.750102 375.030047,447.480889 362.542226,315.260712 386.972297" style="stroke: black; stroke-width: 2; fill: none"/><text x="922.449060" y="356.262474">1</text><path d="M315.260712 386.972297,211.153233 316.208190,169.298818 231.770669" style="stroke: black; stroke-width: 2; fill: none"/><text x="263.206972" y="351.590243">1,2</text><path d="M837.932118 28.734518,788.786949 112.683643,709.302459 169.366241,571.874715 173.962388,434.446792 178.551169,297.018767 183.135513,169.298818 231.770669" style="stroke: black; stroke-width: 2; fill: none"/><text x="813.359534" y="70.709081">2</text><path d="M169.298818 231.770669,75.807809 165.823508,10.000000 95.791374,51.013848 10.000000" style="stroke: black; stroke-width: 2; fill: none"/><text x="122.553313" y="198.797089">1</text><path d="M315.260712 386.972297,388.223045 451.965550,452.146225 531.555491,516.069567 611.144755" style="stroke: black; stroke-width: 2; fill: none"/><text x="351.741878" y="419.468923">2</text><circle cx="169.298818" cy="231.770669" r="1" style="stroke: none; fill: #1BA1E2; r: 8px"/><circle cx="10.000000" cy="95.791374" r="1" style="stroke: none; fill: black; r: 5px"/><circle cx="788.786949" cy="112.683643" r="1" style="stroke: none; fill: black; r: 5px"/><circle cx="434.446792" cy="178.551169" r="1" style="stroke: none; fill: black; r: 5px"/><circle cx="388.223045" cy="451.965550" r="1" style="stroke: none; fill: black; r: 5px"/><circle cx="516.069567" cy="611.144755" r="1" style="stroke: none; fill: #ff5c77; r: 8px"/><circle cx="854.898121" cy="364.794503" r="1" style="stroke: none; fill: black; r: 5px"/><circle cx="75.807809" cy="165.823508" r="1" style="stroke: none; fill: black; r: 5px"/><circle cx="315.260712" cy="386.972297" r="1" style="stroke: none; fill: #1BA1E2; r: 8px"/><circle cx="719.795920" cy="381.854751" r="1" style="stroke: none; fill: black; r: 5px"/><circle cx="583.750102" cy="375.030047" r="1" style="stroke: none; fill: black; r: 5px"/><circle cx="447.480889" cy="362.542226" r="1" style="stroke: none; fill: black; r: 5px"/><circle cx="571.874715" cy="173.962388" r="1" style="stroke: none; fill: black; r: 5px"/><circle cx="297.018767" cy="183.135513" r="1" style="stroke: none; fill: black; r: 5px"/><circle cx="990.000000" cy="347.730445" r="1" style="stroke: none; fill: #4dd091; r: 8px"/><circle cx="51.013848" cy="10.000000" r="1" style="stroke: none; fill: #ff5c77; r: 8px"/><circle cx="837.932118" cy="28.734518" r="1" style="stroke: none; fill: #4dd091; r: 8px"/><circle cx="709.302459" cy="169.366241" r="1" style="stroke: none; fill: black; r: 5px"/><circle cx="452.146225" cy="531.555491" r="1" style="stroke: none; fill: black; r: 5px"/><circle cx="211.153233" cy="316.208190" r="1" style="stroke: none; fill: black; r: 5px"/></svg>