<svg width="1000.000000" height="600.000000" xmlns="http://www.w3.org/2000/svg"><path d="M990.000000 329.570756,754.600871 359.299061,556.894049 341.183359,397.590711 371.376223,346.386067 243.638134,204.150943 143.307417,256.777939 33.224094" style="stroke: #0065a2; stroke-width: 2; fill: none"/><text x="872.300435" y="344.434908">Track 1</text><path d="M869.100145 75.956641,804.383164 186.505176,401.146589 199.975504,348.519594 241.315646,399.724238 369.518196,465.152395 354.654004,624.455733 553.000848" style="stroke: #ff828b; stroke-width: 2; fill: none"/><text x="836.741655" y="131.230909">Track 2</text><path d="M192.060958 460.097598,236.865022 441.284850,281.669086 422.472156,333.229318 398.549919,384.789550 374.627770,370.210450 323.067707,355.631350 271.508050,352.786647 255.018335,349.941945 238.528662,364.876633 223.200271,379.811321 207.871915,376.255443 184.414956,372.699565 160.958080" style="stroke: #ffa23a; stroke-width: 2; fill: none"/><text x="214.462990" y="450.691224">Track 3</text><path d="M780.914369 36.939956,721.886792 38.333405,662.859216 39.726855,638.679245 51.338944,614.499274 62.951054,541.248186 60.628630,467.997097 58.306207,404.702467 34.153059,341.407837 10.000000,305.849057 16.967219,270.290276 23.934446,248.955007 51.338944,227.619739 78.743556,218.374456 112.651116,209.129173 146.558852,189.927431 147.952324,170.725689 149.345797,127.343977 131.230676,83.962264 113.115604,46.981132 97.787506,10.000000 82.459444" style="stroke: #c05780; stroke-width: 2; fill: none"/><text x="751.400581" y="37.636681">Track 4</text><circle cx="990.000000" cy="329.570756" r="1" style="stroke: none; fill: #0065a2; r: 5px"/><circle cx="754.600871" cy="359.299061" r="1" style="stroke: none; fill: #0065a2; r: 5px"/><circle cx="556.894049" cy="341.183359" r="1" style="stroke: none; fill: #0065a2; r: 5px"/><circle cx="397.590711" cy="371.376223" r="1" style="stroke: none; fill: #0065a2; r: 5px"/><circle cx="346.386067" cy="243.638134" r="1" style="stroke: none; fill: #0065a2; r: 5px"/><circle cx="204.150943" cy="143.307417" r="1" style="stroke: none; fill: #0065a2; r: 5px"/><circle cx="256.777939" cy="33.224094" r="1" style="stroke: none; fill: #0065a2; r: 5px"/><circle cx="869.100145" cy="75.956641" r="1" style="stroke: none; fill: #ff828b; r: 5px"/><circle cx="804.383164" cy="186.505176" r="1" style="stroke: none; fill: #ff828b; r: 5px"/><circle cx="401.146589" cy="199.975504" r="1" style="stroke: none; fill: #ff828b; r: 5px"/><circle cx="348.519594" cy="241.315646" r="1" style="stroke: none; fill: #ff828b; r: 5px"/><circle cx="399.724238" cy="369.518196" r="1" style="stroke: none; fill: #ff828b; r: 5px"/><circle cx="465.152395" cy="354.654004" r="1" style="stroke: none; fill: #ff828b; r: 5px"/><circle cx="624.455733" cy="553.000848" r="1" style="stroke: none; fill: #ff828b; r: 5px"/><circle cx="192.060958" cy="460.097598" r="1" style="stroke: none; fill: #ffa23a; r: 5px"/><circle cx="236.865022" cy="441.284850" r="1" style="stroke: none; fill: #ffa23a; r: 5px"/><circle cx="281.669086" cy="422.472156" r="1" style="stroke: none; fill: #ffa23a; r: 5px"/><circle cx="333.229318" cy="398.549919" r="1" style="stroke: none; fill: #ffa23a; r: 5px"/><circle cx="384.789550" cy="374.627770" r="1" style="stroke: none; fill: #ffa23a; r: 5px"/><circle cx="370.210450" cy="323.067707" r="1" style="stroke: none; fill: #ffa23a; r: 5px"/><circle cx="355.631350" cy="271.508050" r="1" style="stroke: none; fill: #ffa23a; r: 5px"/><circle cx="352.786647" cy="255.018335" r="1" style="stroke: none; fill: #ffa23a; r: 5px"/><circle cx="349.941945" cy="238.528662" r="1" style="stroke: none; fill: #ffa23a; r: 5px"/><circle cx="364.876633" cy="223.200271" r="1" style="stroke: none; fill: #ffa23a; r: 5px"/><circle cx="379.811321" cy="207.871915" r="1" style="stroke: none; fill: #ffa23a; r: 5px"/><circle cx="376.255443" cy="184.414956" r="1" style="stroke: none; fill: #ffa23a; r: 5px"/><circle cx="372.699565" cy="160.958080" r="1" style="stroke: none; fill: #ffa23a; r: 5px"/><circle cx="780.914369" cy="36.939956" r="1" style="stroke: none; fill: #c05780; r: 5px"/><circle cx="721.886792" cy="38.333405" r="1" style="stroke: none; fill: #c05780; r: 5px"/><circle cx="662.859216" cy="39.726855" r="1" style="stroke: none; fill: #c05780; r: 5px"/><circle cx="638.679245" cy="51.338944" r="1" style="stroke: none; fill: #c05780; r: 5px"/><circle cx="614.499274" cy="62.951054" r="1" style="stroke: none; fill: #c05780; r: 5px"/><circle cx="541.248186" cy="60.628630" r="1" style="stroke: none; fill: #c05780; r: 5px"/><circle cx="467.997097" cy="58.306207" r="1" style="stroke: none; fill: #c05780; r: 5px"/><circle cx="404.702467" cy="34.153059" r="1" style="stroke: none; fill: #c05780; r: 5px"/><circle cx="341.407837" cy="10.000000" r="1" style="stroke: none; fill: #c05780; r: 5px"/><circle cx="305.849057" cy="16.967219" r="1" style="stroke: none; fill: #c05780; r: 5px"/><circle cx="270.290276" cy="23.934446" r="1" style="stroke: none; fill: #c05780; r: 5px"/><circle cx="248.955007" cy="51.338944" r="1" style="stroke: none; fill: #c05780; r: 5px"/><circle cx="227.619739" cy="78.743556" r="1" style="stroke: none; fill: #c05780; r: 5px"/><circle cx="218.374456" cy="112.651116" r="1" style="stroke: none; fill: #c05780; r: 5px"/><circle cx="209.129173" cy="146.558852" r="1" style="stroke: none; fill: #c05780; r: 5px"/><circle cx="189.927431" cy="147.952324" r="1" style="stroke: none; fill: #c05780; r: 5px"/><circle cx="170.725689" cy="149.345797" r="1" style="stroke: none; fill: #c05780; r: 5px"/><circle cx="127.343977" cy="131.230676" r="1" style="stroke: none; fill: #c05780; r: 5px"/><circle cx="83.962264" cy="113.115604" r="1" style="stroke: none; fill: #c05780; r: 5px"/><circle cx="46.981132" cy="97.787506" r="1" style="stroke: none; fill: #c05780; r: 5px"/><circle cx="10.000000" cy="82.459444" r="1" style="stroke: none; fill: #c05780; r: 5px"/></svg>