<svg width="1000.000000" height="650.000000" xmlns="http://www.w3.org/2000/svg"><path d="M950.000000 343.483347,733.817126 370.784852,552.249637 354.147983,405.950653 381.876123,358.925980 264.565633,228.301887 172.425179,276.632801 71.328249" style="stroke: #0065a2; stroke-width: 2; fill: none"/><text x="841.908563" y="357.134099">Track 1</text><path d="M838.969521 110.572425,779.535559 212.096591,409.216255 224.467299,360.885341 262.432736,407.910015 380.169772,467.997097 366.518983,614.296081 548.674248" style="stroke: #ff828b; stroke-width: 2; fill: none"/><text x="809.252540" y="161.334508">Track 2</text><path d="M217.198839 463.354937,258.345428 446.077923,299.492017 428.800959,346.843251 406.831559,394.194485 384.862238,380.805515 337.511160,367.416546 290.160454,364.804064 275.016838,362.191582 259.873261,375.907112 245.796167,389.622642 231.719106,386.357039 210.177000,383.091437 188.634972" style="stroke: #ffa23a; stroke-width: 2; fill: none"/><text x="237.772134" y="454.716430">Track 3</text><path d="M757.982583 74.740776,703.773585 76.020474,649.564586 77.300173,627.358491 87.964336,605.152395 98.628519,537.880987 96.495681,470.609579 94.362843,412.481858 72.181381,354.354136 50.000000,321.698113 56.398467,289.042090 62.796940,269.448476 87.964336,249.854862 113.131837,241.364296 144.271433,232.873730 175.411190,215.239478 176.690910,197.605225 177.970630,157.764877 161.334294,117.924528 144.698004,83.962264 130.621179,50.000000 116.544388" style="stroke: #c05780; stroke-width: 2; fill: none"/><text x="730.878084" y="75.380625">Track 4</text><circle cx="950.000000" cy="343.483347" r="1" style="stroke: none; fill: #0065a2; r: 5px"/><circle cx="733.817126" cy="370.784852" r="1" style="stroke: none; fill: #0065a2; r: 5px"/><circle cx="552.249637" cy="354.147983" r="1" style="stroke: none; fill: #0065a2; r: 5px"/><circle cx="405.950653" cy="381.876123" r="1" style="stroke: none; fill: #0065a2; r: 5px"/><circle cx="358.925980" cy="264.565633" r="1" style="stroke: none; fill: #0065a2; r: 5px"/><circle cx="228.301887" cy="172.425179" r="1" style="stroke: none; fill: #0065a2; r: 5px"/><circle cx="276.632801" cy="71.328249" r="1" style="stroke: none; fill: #0065a2; r: 5px"/><circle cx="838.969521" cy="110.572425" r="1" style="stroke: none; fill: #ff828b; r: 5px"/><circle cx="779.535559" cy="212.096591" r="1" style="stroke: none; fill: #ff828b; r: 5px"/><circle cx="409.216255" cy="224.467299" r="1" style="stroke: none; fill: #ff828b; r: 5px"/><circle cx="360.885341" cy="262.432736" r="1" style="stroke: none; fill: #ff828b; r: 5px"/><circle cx="407.910015" cy="380.169772" r="1" style="stroke: none; fill: #ff828b; r: 5px"/><circle cx="467.997097" cy="366.518983" r="1" style="stroke: none; fill: #ff828b; r: 5px"/><circle cx="614.296081" cy="548.674248" r="1" style="stroke: none; fill: #ff828b; r: 5px"/><circle cx="217.198839" cy="463.354937" r="1" style="stroke: none; fill: #ffa23a; r: 5px"/><circle cx="258.345428" cy="446.077923" r="1" style="stroke: none; fill: #ffa23a; r: 5px"/><circle cx="299.492017" cy="428.800959" r="1" style="stroke: none; fill: #ffa23a; r: 5px"/><circle cx="346.843251" cy="406.831559" r="1" style="stroke: none; fill: #ffa23a; r: 5px"/><circle cx="394.194485" cy="384.862238" r="1" style="stroke: none; fill: #ffa23a; r: 5px"/><circle cx="380.805515" cy="337.511160" r="1" style="stroke: none; fill: #ffa23a; r: 5px"/><circle cx="367.416546" cy="290.160454" r="1" style="stroke: none; fill: #ffa23a; r: 5px"/><circle cx="364.804064" cy="275.016838" r="1" style="stroke: none; fill: #ffa23a; r: 5px"/><circle cx="362.191582" cy="259.873261" r="1" style="stroke: none; fill: #ffa23a; r: 5px"/><circle cx="375.907112" cy="245.796167" r="1" style="stroke: none; fill: #ffa23a; r: 5px"/><circle cx="389.622642" cy="231.719106" r="1" style="stroke: none; fill: #ffa23a; r: 5px"/><circle cx="386.357039" cy="210.177000" r="1" style="stroke: none; fill: #ffa23a; r: 5px"/><circle cx="383.091437" cy="188.634972" r="1" style="stroke: none; fill: #ffa23a; r: 5px"/><circle cx="757.982583" cy="74.740776" r="1" style="stroke: none; fill: #c05780; r: 5px"/><circle cx="703.773585" cy="76.020474" r="1" style="stroke: none; fill: #c05780; r: 5px"/><circle cx="649.564586" cy="77.300173" r="1" style="stroke: none; fill: #c05780; r: 5px"/><circle cx="627.358491" cy="87.964336" r="1" style="stroke: none; fill: #c05780; r: 5px"/><circle cx="605.152395" cy="98.628519" r="1" style="stroke: none; fill: #c05780; r: 5px"/><circle cx="537.880987" cy="96.495681" r="1" style="stroke: none; fill: #c05780; r: 5px"/><circle cx="470.609579" cy="94.362843" r="1" style="stroke: none; fill: #c05780; r: 5px"/><circle cx="412.481858" cy="72.181381" r="1" style="stroke: none; fill: #c05780; r: 5px"/><circle cx="354.354136" cy="50.000000" r="1" style="stroke: none; fill: #c05780; r: 5px"/><circle cx="321.698113" cy="56.398467" r="1" style="stroke: none; fill: #c05780; r: 5px"/><circle cx="289.042090" cy="62.796940" r="1" style="stroke: none; fill: #c05780; r: 5px"/><circle cx="269.448476" cy="87.964336" r="1" style="stroke: none; fill: #c05780; r: 5px"/><circle cx="249.854862" cy="113.131837" r="1" style="stroke: none; fill: #c05780; r: 5px"/><circle cx="241.364296" cy="144.271433" r="1" style="stroke: none; fill: #c05780; r: 5px"/><circle cx="232.873730" cy="175.411190" r="1" style="stroke: none; fill: #c05780; r: 5px"/><circle cx="215.239478" cy="176.690910" r="1" style="stroke: none; fill: #c05780; r: 5px"/><circle cx="197.605225" cy="177.970630" r="1" style="stroke: none; fill: #c05780; r: 5px"/><circle cx="157.764877" cy="161.334294" r="1" style="stroke: none; fill: #c05780; r: 5px"/><circle cx="117.924528" cy="144.698004" r="1" style="stroke: none; fill: #c05780; r: 5px"/><circle cx="83.962264" cy="130.621179" r="1" style="stroke: none; fill: #c05780; r: 5px"/><circle cx="50.000000" cy="116.544388" r="1" style="stroke: none; fill: #c05780; r: 5px"/></svg>