<svg width="1000.000000" height="650.000000" xmlns="http://www.w3.org/2000/svg"><path d="M187.929352 457.684987,318.334960 400.953336,358.621101 309.090626" style="stroke: black; stroke-width: 2; fill: none"/><text x="253.132156" y="429.319161">[3]</text><path d="M487.841745 353.312847,358.621101 309.090626" style="stroke: black; stroke-width: 2; fill: none"/><text x="423.231423" y="331.201736">[1 2]</text><path d="M950.000000 333.025496,796.125468 352.459405,641.534166 353.754103,487.841745 353.312847" style="stroke: black; stroke-width: 2; fill: none"/><text x="873.062734" y="342.742450">[1]</text><path d="M834.534750 90.811664,778.560793 186.425528,632.517177 201.083288,291.347077 219.940452" style="stroke: black; stroke-width: 2; fill: none"/><text x="806.547772" y="138.618596">[2]</text><path d="M834.534750 90.811664,698.103270 54.781341,552.598730 77.161257,249.737221 50.000000" style="stroke: black; stroke-width: 2; fill: none"/><text x="766.319010" y="72.796502">[4]</text><path d="M358.621101 309.090626,291.347077 219.940452" style="stroke: black; stroke-width: 2; fill: none"/><text x="324.984089" y="264.515539">[1 2 3]</text><path d="M205.885309 141.727982,50.000000 111.921893" style="stroke: black; stroke-width: 2; fill: none"/><text x="127.942655" y="126.824938">[4]</text><path d="M205.885309 141.727982,249.737221 50.000000" style="stroke: black; stroke-width: 2; fill: none"/><text x="227.811265" y="95.863991">[1 4]</text><path d="M291.347077 219.940452,205.885309 141.727982" style="stroke: black; stroke-width: 2; fill: none"/><text x="248.616193" y="180.834217">[1]</text><path d="M487.841745 353.312847,517.338770 442.387720,590.144288 533.036167" style="stroke: black; stroke-width: 2; fill: none"/><text x="502.590257" y="397.850284">[2]</text><circle cx="632.517177" cy="201.083288" r="1" style="stroke: none; fill: black; r: 5px"/><circle cx="517.338770" cy="442.387720" r="1" style="stroke: none; fill: black; r: 5px"/><circle cx="698.103270" cy="54.781341" r="1" style="stroke: none; fill: black; r: 5px"/><circle cx="50.000000" cy="111.921893" r="1" style="stroke: none; fill: #ff5c77; r: 8px"/><circle cx="291.347077" cy="219.940452" r="1" style="stroke: none; fill: #1BA1E2; r: 8px"/><circle cx="249.737221" cy="50.000000" r="1" style="stroke: none; fill: #ff5c77; r: 8px"/><circle cx="834.534750" cy="90.811664" r="1" style="stroke: none; fill: #4dd091; r: 8px"/><circle cx="796.125468" cy="352.459405" r="1" style="stroke: none; fill: black; r: 5px"/><circle cx="641.534166" cy="353.754103" r="1" style="stroke: none; fill: black; r: 5px"/><circle cx="778.560793" cy="186.425528" r="1" style="stroke: none; fill: black; r: 5px"/><circle cx="187.929352" cy="457.684987" r="1" style="stroke: none; fill: #4dd091; r: 8px"/><circle cx="552.598730" cy="77.161257" r="1" style="stroke: none; fill: black; r: 5px"/><circle cx="950.000000" cy="333.025496" r="1" style="stroke: none; fill: #4dd091; r: 8px"/><circle cx="205.885309" cy="141.727982" r="1" style="stroke: none; fill: #1BA1E2; r: 8px"/><circle cx="590.144288" cy="533.036167" r="1" style="stroke: none; fill: #ff5c77; r: 8px"/><circle cx="318.334960" cy="400.953336" r="1" style="stroke: none; fill: black; r: 5px"/><circle cx="487.841745" cy="353.312847" r="1" style="stroke: none; fill: #1BA1E2; r: 8px"/><circle cx="358.621101" cy="309.090626" r="1" style="stroke: none; fill: #1BA1E2; r: 8px"/></svg>