<svg width="1000.000000" height="600.000000" xmlns="http://www.w3.org/2000/svg"><path d="M990.000000 318.183318,822.447731 339.344686,654.114981 340.754468,486.761011 340.273989" style="stroke: black; stroke-width: 2; fill: none"/><text x="906.223866" y="328.764002">1</text><path d="M272.800151 195.046270,179.741781 109.881581" style="stroke: black; stroke-width: 2; fill: none"/><text x="226.270966" y="152.463925">1</text><path d="M486.761011 340.273989,518.879994 437.266629,598.157114 535.972715" style="stroke: black; stroke-width: 2; fill: none"/><text x="502.820502" y="388.770309">2</text><path d="M486.761011 340.273989,346.054087 292.120903" style="stroke: black; stroke-width: 2; fill: none"/><text x="416.407549" y="316.197446">1,2</text><path d="M346.054087 292.120903,272.800151 195.046270" style="stroke: black; stroke-width: 2; fill: none"/><text x="309.427119" y="243.583587">1,2,3</text><path d="M179.741781 109.881581,227.491641 10.000000" style="stroke: black; stroke-width: 2; fill: none"/><text x="203.616711" y="59.940790">1,4</text><path d="M864.271173 54.439367,803.321753 158.552242,644.296481 174.512914,272.800151 195.046270" style="stroke: black; stroke-width: 2; fill: none"/><text x="833.796463" y="106.495805">2</text><path d="M179.741781 109.881581,10.000000 77.426062" style="stroke: black; stroke-width: 2; fill: none"/><text x="94.870891" y="93.653821">4</text><path d="M227.491641 10.000000,557.274173 39.575591,715.712450 15.206349,864.271173 54.439367" style="stroke: black; stroke-width: 2; fill: none"/><text x="392.382907" y="24.787795">4</text><path d="M160.189739 453.923652,302.186957 392.149188,346.054087 292.120903" style="stroke: black; stroke-width: 2; fill: none"/><text x="231.188348" y="423.036420">3</text><circle cx="302.186957" cy="392.149188" r="1" style="stroke: none; fill: black; r: 5px"/><circle cx="715.712450" cy="15.206349" r="1" style="stroke: none; fill: black; r: 5px"/><circle cx="822.447731" cy="339.344686" r="1" style="stroke: none; fill: black; r: 5px"/><circle cx="272.800151" cy="195.046270" r="1" style="stroke: none; fill: #1BA1E2; r: 8px"/><circle cx="179.741781" cy="109.881581" r="1" style="stroke: none; fill: #1BA1E2; r: 8px"/><circle cx="803.321753" cy="158.552242" r="1" style="stroke: none; fill: black; r: 5px"/><circle cx="518.879994" cy="437.266629" r="1" style="stroke: none; fill: black; r: 5px"/><circle cx="598.157114" cy="535.972715" r="1" style="stroke: none; fill: #ff5c77; r: 8px"/><circle cx="486.761011" cy="340.273989" r="1" style="stroke: none; fill: #1BA1E2; r: 8px"/><circle cx="654.114981" cy="340.754468" r="1" style="stroke: none; fill: black; r: 5px"/><circle cx="346.054087" cy="292.120903" r="1" style="stroke: none; fill: #1BA1E2; r: 8px"/><circle cx="227.491641" cy="10.000000" r="1" style="stroke: none; fill: #ff5c77; r: 8px"/><circle cx="644.296481" cy="174.512914" r="1" style="stroke: none; fill: black; r: 5px"/><circle cx="10.000000" cy="77.426062" r="1" style="stroke: none; fill: #ff5c77; r: 8px"/><circle cx="990.000000" cy="318.183318" r="1" style="stroke: none; fill: #4dd091; r: 8px"/><circle cx="160.189739" cy="453.923652" r="1" style="stroke: none; fill: #4dd091; r: 8px"/><circle cx="557.274173" cy="39.575591" r="1" style="stroke: none; fill: black; r: 5px"/><circle cx="864.271173" cy="54.439367" r="1" style="stroke: none; fill: #4dd091; r: 8px"/></svg>