<svg width="1000.000000" height="600.000000" xmlns="http://www.w3.org/2000/svg"><path d="M990.000000 44.246550,914.963100 46.017927,839.926199 47.789304,809.188192 62.550798,778.450185 77.312317,685.332103 74.360011,592.214022 71.407706,511.752768 40.703797,431.291513 10.000000,386.088561 18.856853,340.885609 27.713715,313.763838 62.550798,286.642066 97.388026,274.889299 140.491917,263.136531 183.596031,238.726937 185.367438,214.317343 187.138845,159.169742 164.110582,104.022140 141.082383,57.011070 121.597033,10.000000 102.111729" style="stroke: #0065a2; stroke-width: 2; fill: none"/><text x="952.481550" y="45.132238">Track 1</text><circle cx="990.000000" cy="44.246550" r="1" style="stroke: none; fill: #0065a2; r: 5px"/><circle cx="914.963100" cy="46.017927" r="1" style="stroke: none; fill: #0065a2; r: 5px"/><circle cx="839.926199" cy="47.789304" r="1" style="stroke: none; fill: #0065a2; r: 5px"/><circle cx="809.188192" cy="62.550798" r="1" style="stroke: none; fill: #0065a2; r: 5px"/><circle cx="778.450185" cy="77.312317" r="1" style="stroke: none; fill: #0065a2; r: 5px"/><circle cx="685.332103" cy="74.360011" r="1" style="stroke: none; fill: #0065a2; r: 5px"/><circle cx="592.214022" cy="71.407706" r="1" style="stroke: none; fill: #0065a2; r: 5px"/><circle cx="511.752768" cy="40.703797" r="1" style="stroke: none; fill: #0065a2; r: 5px"/><circle cx="431.291513" cy="10.000000" r="1" style="stroke: none; fill: #0065a2; r: 5px"/><circle cx="386.088561" cy="18.856853" r="1" style="stroke: none; fill: #0065a2; r: 5px"/><circle cx="340.885609" cy="27.713715" r="1" style="stroke: none; fill: #0065a2; r: 5px"/><circle cx="313.763838" cy="62.550798" r="1" style="stroke: none; fill: #0065a2; r: 5px"/><circle cx="286.642066" cy="97.388026" r="1" style="stroke: none; fill: #0065a2; r: 5px"/><circle cx="274.889299" cy="140.491917" r="1" style="stroke: none; fill: #0065a2; r: 5px"/><circle cx="263.136531" cy="183.596031" r="1" style="stroke: none; fill: #0065a2; r: 5px"/><circle cx="238.726937" cy="185.367438" r="1" style="stroke: none; fill: #0065a2; r: 5px"/><circle cx="214.317343" cy="187.138845" r="1" style="stroke: none; fill: #0065a2; r: 5px"/><circle cx="159.169742" cy="164.110582" r="1" style="stroke: none; fill: #0065a2; r: 5px"/><circle cx="104.022140" cy="141.082383" r="1" style="stroke: none; fill: #0065a2; r: 5px"/><circle cx="57.011070" cy="121.597033" r="1" style="stroke: none; fill: #0065a2; r: 5px"/><circle cx="10.000000" cy="102.111729" r="1" style="stroke: none; fill: #0065a2; r: 5px"/></svg>