<svg width="1000.000000" height="350.000000" xmlns="http://www.w3.org/2000/svg"><path d="M950.000000 81.450913,881.088561 83.077688,812.177122 84.704463,783.948339 98.260937,755.719557 111.817434,670.202952 109.106133,584.686347 106.394832,510.793358 78.197364,436.900369 50.000000,395.387454 58.133844,353.874539 66.267697,328.966790 98.260937,304.059041 130.254310,293.265683 169.839516,282.472325 209.424926,260.055351 211.051729,237.638376 212.678531,186.992620 191.530126,136.346863 170.381780,93.173432 152.487071,50.000000 134.592404" style="stroke: #0065a2; stroke-width: 2; fill: none"/><circle cx="950.000000" cy="81.450913" r="1" style="stroke: none; fill: #0065a2; r: 5px"/><circle cx="881.088561" cy="83.077688" r="1" style="stroke: none; fill: #0065a2; r: 5px"/><circle cx="812.177122" cy="84.704463" r="1" style="stroke: none; fill: #0065a2; r: 5px"/><circle cx="783.948339" cy="98.260937" r="1" style="stroke: none; fill: #0065a2; r: 5px"/><circle cx="755.719557" cy="111.817434" r="1" style="stroke: none; fill: #0065a2; r: 5px"/><circle cx="670.202952" cy="109.106133" r="1" style="stroke: none; fill: #0065a2; r: 5px"/><circle cx="584.686347" cy="106.394832" r="1" style="stroke: none; fill: #0065a2; r: 5px"/><circle cx="510.793358" cy="78.197364" r="1" style="stroke: none; fill: #0065a2; r: 5px"/><circle cx="436.900369" cy="50.000000" r="1" style="stroke: none; fill: #0065a2; r: 5px"/><circle cx="395.387454" cy="58.133844" r="1" style="stroke: none; fill: #0065a2; r: 5px"/><circle cx="353.874539" cy="66.267697" r="1" style="stroke: none; fill: #0065a2; r: 5px"/><circle cx="328.966790" cy="98.260937" r="1" style="stroke: none; fill: #0065a2; r: 5px"/><circle cx="304.059041" cy="130.254310" r="1" style="stroke: none; fill: #0065a2; r: 5px"/><circle cx="293.265683" cy="169.839516" r="1" style="stroke: none; fill: #0065a2; r: 5px"/><circle cx="282.472325" cy="209.424926" r="1" style="stroke: none; fill: #0065a2; r: 5px"/><circle cx="260.055351" cy="211.051729" r="1" style="stroke: none; fill: #0065a2; r: 5px"/><circle cx="237.638376" cy="212.678531" r="1" style="stroke: none; fill: #0065a2; r: 5px"/><circle cx="186.992620" cy="191.530126" r="1" style="stroke: none; fill: #0065a2; r: 5px"/><circle cx="136.346863" cy="170.381780" r="1" style="stroke: none; fill: #0065a2; r: 5px"/><circle cx="93.173432" cy="152.487071" r="1" style="stroke: none; fill: #0065a2; r: 5px"/><circle cx="50.000000" cy="134.592404" r="1" style="stroke: none; fill: #0065a2; r: 5px"/></svg>