<svg width="1000.000000" height="600.000000" xmlns="http://www.w3.org/2000/svg"><path d="M990.000000 44.246550,809.188192 62.550798,778.450185 77.312317,685.332103 74.360011,511.752768 40.703797,431.291513 10.000000,386.088561 18.856853,340.885609 27.713715,313.763838 62.550798,238.726937 185.367438,214.317343 187.138845,159.169742 164.110582,10.000000 102.111729" style="stroke: black; stroke-width: 2; fill: none"/><text x="899.594096" y="53.398674">1</text><circle cx="386.088561" cy="18.856853" r="1" style="stroke: none; fill: black; r: 5px"/><circle cx="10.000000" cy="102.111729" r="1" style="stroke: none; fill: #ff5c77; r: 8px"/><circle cx="809.188192" cy="62.550798" r="1" style="stroke: none; fill: black; r: 5px"/><circle cx="778.450185" cy="77.312317" r="1" style="stroke: none; fill: black; r: 5px"/><circle cx="685.332103" cy="74.360011" r="1" style="stroke: none; fill: black; r: 5px"/><circle cx="313.763838" cy="62.550798" r="1" style="stroke: none; fill: black; r: 5px"/><circle cx="990.000000" cy="44.246550" r="1" style="stroke: none; fill: #4dd091; r: 8px"/><circle cx="340.885609" cy="27.713715" r="1" style="stroke: none; fill: black; r: 5px"/><circle cx="214.317343" cy="187.138845" r="1" style="stroke: none; fill: black; r: 5px"/><circle cx="159.169742" cy="164.110582" r="1" style="stroke: none; fill: black; r: 5px"/><circle cx="511.752768" cy="40.703797" r="1" style="stroke: none; fill: black; r: 5px"/><circle cx="431.291513" cy="10.000000" r="1" style="stroke: none; fill: black; r: 5px"/><circle cx="238.726937" cy="185.367438" r="1" style="stroke: none; fill: black; r: 5px"/></svg>